<svg width="142" height="142" viewBox="0 0 142 142" fill="none" xmlns="http://www.w3.org/2000/svg">
<path fill-rule="evenodd" clip-rule="evenodd" d="M53.0505 41.4984C48.4209 42.5823 41.8775 42.7377 36.6912 41.9221C30.9229 41.0098 33.6613 44.9025 38.1346 48.6429C41.1748 51.1962 44.4496 54.6722 48.0968 59.3202C49.1214 60.6253 49.4785 60.3828 49.9341 58.1616C51.037 52.6612 50.7142 52.9747 53.0713 55.0764C55.0793 56.8549 58.4148 61.0389 64.3459 69.2197C66.3231 71.9348 72.7771 80.6535 74.2694 82.6547C81.1216 91.9622 90.8612 99.6132 99.5542 102.494C106.347 104.746 105.862 100.231 100.356 98.2973C93.6704 95.9755 86.6828 91.2627 80.5137 84.9172C78.1785 82.5153 76.3556 80.1382 66.5374 66.7756C56.2511 52.7523 55.9841 52.8721 52.4928 49.7114C52.8239 48.7968 54.2561 45.0337 54.5847 44.2958C55.2958 42.7677 54.4163 41.1817 53.0505 41.4984Z" fill="url(#paint0_linear_436_132)"/>
<defs>
<linearGradient id="paint0_linear_436_132" x1="29.3675" y1="46.115" x2="104.503" y2="111.703" gradientUnits="userSpaceOnUse">
<stop stop-color="white"/>
<stop offset="1" stop-color="#181818"/>
</linearGradient>
</defs>
</svg>
