<svg width="47" height="65" viewBox="0 0 47 65" fill="none" xmlns="http://www.w3.org/2000/svg">
<path d="M10.9894 0.945043C7.87121 1.87796 3.70027 3.22524 0.820048 4.65845M0.820048 4.65845C0.488138 4.82347 2.40767 6.8372 2.504 6.92256C4.61533 8.7969 6.90715 10.3374 9.27662 11.8574M0.820048 4.65845C18.4644 3.43123 33.243 13.4995 35.8391 25.8389C36.0964 27.0619 36.3752 28.3933 36.5343 29.7437M36.5343 29.7437C36.7877 31.8943 36.7374 34.0932 35.8135 35.9797C34.9608 37.7206 33.1166 39.6293 31.0918 39.7478C27.3094 39.9689 25.344 35.344 27.3741 32.3086C29.1579 29.6411 33.7004 28.3128 36.5343 29.7437ZM36.5343 29.7437C36.5941 29.7739 36.6531 29.8053 36.7113 29.838C50.7621 37.7193 46.9971 56.283 36.7397 64.5643" stroke="white" stroke-width="0.59" stroke-miterlimit="1.5" stroke-linecap="round" stroke-linejoin="round"/>
</svg>
