<svg width="100" height="100" viewBox="0 0 100 100" fill="none" xmlns="http://www.w3.org/2000/svg">
<path fill-rule="evenodd" clip-rule="evenodd" d="M2.09856 0.154938C-0.758399 1.1653 -0.66903 19.5461 2.18792 19.2352C4.33064 19.0409 4.62821 17.9916 4.53893 11.4243C4.41989 0.776696 4.15199 -0.54454 2.09856 0.154938ZM1.71174 27.629C0.610619 28.6782 1.23561 41.1911 2.63432 45.6211C3.55688 48.5745 4.86632 49.1574 5.90792 47.0589C6.71144 45.4268 6.23519 34.5461 5.07455 28.6005C4.74719 26.9684 2.93189 26.4632 1.71174 27.629ZM4.80674 57.2402C3.28898 59.6496 5.87819 73.3671 7.87211 73.3671C9.33035 73.3671 9.56834 72.7842 9.56834 69.5588C9.56834 60.621 6.94946 53.8594 4.80674 57.2402ZM74.8023 64.6625C71.7965 66.3723 83.2541 71.4241 90.1584 71.4241C92.3309 71.4241 91.4679 72.007 87.7181 73.0951C83.1649 74.3775 75.9332 77.6417 75.4868 78.5743C74.4154 80.8671 77.2724 80.7505 82.9268 78.3023C89.0871 75.621 88.968 75.4655 84.7719 80.7505C79.296 87.5898 78.4033 90.1157 81.3792 90.0769C82.9565 90.0769 84.5636 88.5225 90.0989 81.7997C92.3607 79.0406 95.1284 75.893 96.289 74.7272C101.586 69.4422 101.586 69.3645 93.8487 68.7039C87.5098 68.1599 83.8493 67.3827 80.665 65.906C78.2545 64.7791 75.6058 64.1962 74.8023 64.6625ZM69.1777 79.9344C68.1063 80.4007 63.1066 83.4318 59.4759 85.2194C55.0417 87.3955 54.0596 88.9888 56.9761 89.2219C59.3569 89.4162 72.3917 82.8489 72.8977 81.1391C73.2845 79.8178 71.1121 79.1184 69.1777 79.9344ZM10.3421 81.6443C7.39589 84.481 15.0144 98.626 19.5081 98.626C19.7165 98.626 20.9366 98.9758 22.1865 99.4032C27.4541 101.191 29.0315 98.5872 23.9127 96.5276C19.3297 94.6623 17.5738 92.4473 14.4787 84.4422C13.1693 81.0614 11.8599 80.1676 10.3421 81.6443ZM48.1076 90.038C46.7386 90.4655 43.227 92.7193 40.8164 93.7297C34.7156 96.2944 32.7515 98.5872 36.6202 98.5872C39.0606 98.5872 50.786 92.8359 51.1134 91.437C51.4705 89.9991 50.1313 89.3774 48.1076 90.038Z" fill="url(#paint0_linear_378_198)"/>
<defs>
<linearGradient id="paint0_linear_378_198" x1="-12" y1="-15" x2="106.5" y2="105.5" gradientUnits="userSpaceOnUse">
<stop stop-color="white"/>
<stop offset="1" stop-color="#585BFF" stop-opacity="0.11"/>
</linearGradient>
</defs>
</svg>
