<svg width="260" height="182" viewBox="0 0 260 182" fill="none" xmlns="http://www.w3.org/2000/svg">
<path d="M166.842 96.1513C145.335 92.9326 121.327 94.6791 99.5667 94.9746C93.3096 95.0597 86.9079 95.627 80.6569 95.3841C79.8416 95.3526 76.2846 95.2342 75.6174 94.6016C75.5302 94.5193 78.3039 94.1947 79.6515 94.0559C82.2717 93.7859 84.8907 93.5867 87.5087 93.3015C94.3915 92.5523 101.395 92.1868 108.338 91.85C126.161 90.9863 158.045 88.3245 175.464 92.0782C176.327 92.2642 173.659 92.0462 172.756 92.029C171.273 92.0008 169.791 91.9601 168.308 91.9274C163.47 91.8214 158.591 91.6329 153.752 91.6626C138.159 91.7575 122.512 91.3015 106.922 91.7099C102.232 91.833 97.5559 92.0885 92.863 92.1872C90.1447 92.2444 90.2665 92.2928 87.4572 92.226C86.2391 92.197 82.8615 92.4536 83.8249 91.9308C85.5216 91.0099 90.8247 91.2403 92.8758 91.0524C102.241 90.1955 111.583 89.0764 120.995 88.4752C145.131 86.9337 169.701 86.9301 193.891 87.575C203.787 87.8388 213.785 86.8183 223.638 87.6428C199.73 85.4814 174.878 85.7882 150.839 85.8507C123.773 85.9211 96.7366 85.9258 69.6696 86.325C58.5576 86.4888 47.6697 87.9702 36.5239 87.862" stroke="white" stroke-miterlimit="1.5" stroke-linecap="round" stroke-linejoin="round"/>
</svg>
