<svg width="111" height="111" viewBox="0 0 111 111" fill="none" xmlns="http://www.w3.org/2000/svg">
<path d="M54.0992 83.2299C54.1722 84.9021 58.0061 84.6275 70.4408 82.1111C83.6017 79.4388 86.4077 78.3704 85.6411 76.5141C84.5555 73.9744 54.0506 80.5224 54.0992 83.2299Z" fill="white"/>
<path d="M37.6519 26.2568C32.6762 26.8314 32.1349 27.7582 30.1502 39.056C28.088 50.7229 28.1266 52.9274 30.281 53.4949C34.1915 54.508 35.7278 51.5934 38.9981 37.29C41.4048 26.7359 41.3245 25.8327 37.6519 26.2568Z" fill="white"/>
<path d="M67.1362 40.1873C63.5529 40.5531 62.3319 41.4144 58.604 46.1427C47.5994 60.2108 38.6227 69.3867 45.5832 68.5349C48.4265 68.2065 50.7421 65.8023 64.1615 49.7747C71.5379 40.8795 71.9333 39.7294 67.1362 40.1873Z" fill="white"/>
</svg>
